<svg width="128" height="128" viewBox="0 0 128 128" xmlns="http://www.w3.org/2000/svg">
  <!-- Blue background -->
  <circle cx="64" cy="64" r="60" fill="#3B82F6"/>
  
  <!-- Green shield for protection -->
  <path d="M64 28 L80 36 L80 52 Q80 66 64 72 Q48 66 48 52 L48 36 Z" fill="#10B981"/>
  
  <!-- White bell for wake-up -->
  <g transform="translate(64, 48)">
    <!-- Bell body -->
    <path d="M-8 -4 Q-8 -8 -4 -8 L4 -8 Q8 -8 8 -4 L8 4 Q8 6 6 6 L-6 6 Q-8 6 -8 4 Z" fill="white"/>
    <!-- Bell top -->
    <circle cx="0" cy="-8" r="2" fill="white"/>
    <!-- Bell bottom -->
    <circle cx="0" cy="6" r="1.5" fill="#1E40AF"/>
  </g>
  
  <!-- Wake-up rays around bell -->
  <g opacity="0.6">
    <line x1="64" y1="20" x2="64" y2="12" stroke="white" stroke-width="2" stroke-linecap="round"/>
    <line x1="82" y1="30" x2="88" y2="24" stroke="white" stroke-width="2" stroke-linecap="round"/>
    <line x1="46" y1="30" x2="40" y2="24" stroke="white" stroke-width="2" stroke-linecap="round"/>
  </g>
</svg>